<?xml version="1.0" encoding="UTF-8"?><svg id="Capa_2" xmlns="http://www.w3.org/2000/svg" viewBox="0 0 803.42 104.29"><defs><style>.cls-1{fill:#e31f54;}</style></defs><g id="Capa_1-2"><path class="cls-1" d="M736.47,65.15l-.64-.03h-.6c-.43,.03-43.99,.51-91.45-22.56-8.33-4.05-15.8-7.94-23.02-11.7-30.95-16.11-55.4-28.83-102.84-30.72-28.99-1.15-83.43,4.02-248.55,54.67-79.53,24.39-154.45,17.26-203.31,6.98C38.27,55.94,15.51,48.44,0,42.55v35.13c15.44,5.36,35.14,11.26,58.15,16.15,26.58,5.66,60.32,10.45,98.31,10.45s79.44-4.71,122.58-17.94c123.44-37.86,198.94-54.78,237.56-53.25,40.07,1.59,59.5,11.71,88.92,27.02,7.42,3.86,15.09,7.85,23.83,12.1,52.31,25.44,99.75,25.94,105.95,25.9,5.04,.2,35.27,.71,68.12-12.96V48.51c-32.1,18.09-66.59,16.66-66.95,16.64Z"/></g></svg>